<mxfile host="app.diagrams.net" modified="2024-06-05T06:49:07.968Z" agent="Mozilla/5.0 (Windows NT 10.0; Win64; x64) AppleWebKit/537.36 (KHTML, like Gecko) Chrome/124.0.0.0 Safari/537.36" etag="-Jrl78msNrycYukVYhUj" version="24.4.13" type="github">
  <diagram name="第 1 页" id="Shxo8c8ruzFcI2NnvS2r">
    <mxGraphModel dx="1434" dy="780" grid="1" gridSize="10" guides="1" tooltips="1" connect="1" arrows="1" fold="1" page="1" pageScale="1" pageWidth="827" pageHeight="1169" math="0" shadow="0">
      <root>
        <mxCell id="0" />
        <mxCell id="1" parent="0" />
        <mxCell id="2ow2e5n1_LkANaT4E1-G-15" value="" style="edgeStyle=orthogonalEdgeStyle;rounded=0;orthogonalLoop=1;jettySize=auto;html=1;entryX=0.5;entryY=0;entryDx=0;entryDy=0;exitX=0.5;exitY=1;exitDx=0;exitDy=0;" edge="1" parent="1" source="2ow2e5n1_LkANaT4E1-G-1" target="2ow2e5n1_LkANaT4E1-G-3">
          <mxGeometry relative="1" as="geometry">
            <mxPoint x="400" y="290" as="targetPoint" />
          </mxGeometry>
        </mxCell>
        <mxCell id="2ow2e5n1_LkANaT4E1-G-16" value="&lt;font style=&quot;font-size: 14px;&quot;&gt;self.context_decoder.forward&lt;/font&gt;" style="edgeLabel;html=1;align=center;verticalAlign=middle;resizable=0;points=[];" vertex="1" connectable="0" parent="2ow2e5n1_LkANaT4E1-G-15">
          <mxGeometry x="0.0765" y="4" relative="1" as="geometry">
            <mxPoint as="offset" />
          </mxGeometry>
        </mxCell>
        <mxCell id="2ow2e5n1_LkANaT4E1-G-17" style="edgeStyle=orthogonalEdgeStyle;rounded=0;orthogonalLoop=1;jettySize=auto;html=1;entryX=0.5;entryY=0;entryDx=0;entryDy=0;exitX=0.5;exitY=1;exitDx=0;exitDy=0;" edge="1" parent="1" source="2ow2e5n1_LkANaT4E1-G-1" target="2ow2e5n1_LkANaT4E1-G-9">
          <mxGeometry relative="1" as="geometry" />
        </mxCell>
        <mxCell id="2ow2e5n1_LkANaT4E1-G-36" value="&lt;font style=&quot;font-size: 14px;&quot;&gt;self.decoder.forward&lt;/font&gt;" style="edgeLabel;html=1;align=center;verticalAlign=middle;resizable=0;points=[];" vertex="1" connectable="0" parent="2ow2e5n1_LkANaT4E1-G-17">
          <mxGeometry x="0.0118" y="1" relative="1" as="geometry">
            <mxPoint as="offset" />
          </mxGeometry>
        </mxCell>
        <mxCell id="2ow2e5n1_LkANaT4E1-G-1" value="&lt;font size=&quot;1&quot; style=&quot;&quot;&gt;&lt;b style=&quot;font-size: 13px;&quot;&gt;gpt.py&lt;/b&gt;&lt;/font&gt;" style="rounded=0;whiteSpace=wrap;html=1;" vertex="1" parent="1">
          <mxGeometry x="320" y="120" width="160" height="80" as="geometry" />
        </mxCell>
        <mxCell id="2ow2e5n1_LkANaT4E1-G-10" value="" style="edgeStyle=orthogonalEdgeStyle;rounded=0;orthogonalLoop=1;jettySize=auto;html=1;" edge="1" parent="1" source="2ow2e5n1_LkANaT4E1-G-3" target="2ow2e5n1_LkANaT4E1-G-4">
          <mxGeometry relative="1" as="geometry" />
        </mxCell>
        <mxCell id="2ow2e5n1_LkANaT4E1-G-13" value="&lt;font style=&quot;font-size: 14px;&quot;&gt;self.ft_op.forward&lt;/font&gt;" style="edgeLabel;html=1;align=center;verticalAlign=middle;resizable=0;points=[];" vertex="1" connectable="0" parent="2ow2e5n1_LkANaT4E1-G-10">
          <mxGeometry x="-0.0333" y="1" relative="1" as="geometry">
            <mxPoint as="offset" />
          </mxGeometry>
        </mxCell>
        <mxCell id="2ow2e5n1_LkANaT4E1-G-3" value="&lt;font style=&quot;font-size: 13px;&quot;&gt;&lt;b style=&quot;&quot;&gt;gpt_decoder.py&lt;/b&gt;&lt;/font&gt;&lt;div style=&quot;font-size: 13px;&quot;&gt;&lt;font style=&quot;font-size: 13px;&quot;&gt;&lt;b style=&quot;&quot;&gt;GptContextDecoder&lt;/b&gt;&lt;/font&gt;&lt;/div&gt;" style="rounded=0;whiteSpace=wrap;html=1;" vertex="1" parent="1">
          <mxGeometry y="280" width="280" height="80" as="geometry" />
        </mxCell>
        <mxCell id="2ow2e5n1_LkANaT4E1-G-11" value="" style="edgeStyle=orthogonalEdgeStyle;rounded=0;orthogonalLoop=1;jettySize=auto;html=1;" edge="1" parent="1" source="2ow2e5n1_LkANaT4E1-G-4" target="2ow2e5n1_LkANaT4E1-G-6">
          <mxGeometry relative="1" as="geometry" />
        </mxCell>
        <mxCell id="2ow2e5n1_LkANaT4E1-G-18" value="&lt;font style=&quot;font-size: 14px;&quot;&gt;gpt_context_decoder.forward&lt;/font&gt;" style="edgeLabel;html=1;align=center;verticalAlign=middle;resizable=0;points=[];" vertex="1" connectable="0" parent="2ow2e5n1_LkANaT4E1-G-11">
          <mxGeometry x="0.0333" y="2" relative="1" as="geometry">
            <mxPoint as="offset" />
          </mxGeometry>
        </mxCell>
        <mxCell id="2ow2e5n1_LkANaT4E1-G-4" value="&lt;b style=&quot;&quot;&gt;&lt;font style=&quot;font-size: 13px;&quot;&gt;ParallelGptContextDecoderOp.cc&lt;/font&gt;&lt;/b&gt;" style="rounded=0;whiteSpace=wrap;html=1;" vertex="1" parent="1">
          <mxGeometry y="420" width="280" height="80" as="geometry" />
        </mxCell>
        <mxCell id="2ow2e5n1_LkANaT4E1-G-12" value="" style="edgeStyle=orthogonalEdgeStyle;rounded=0;orthogonalLoop=1;jettySize=auto;html=1;" edge="1" parent="1" source="2ow2e5n1_LkANaT4E1-G-6" target="2ow2e5n1_LkANaT4E1-G-7">
          <mxGeometry relative="1" as="geometry" />
        </mxCell>
        <mxCell id="2ow2e5n1_LkANaT4E1-G-21" value="Text" style="edgeLabel;html=1;align=center;verticalAlign=middle;resizable=0;points=[];" vertex="1" connectable="0" parent="2ow2e5n1_LkANaT4E1-G-12">
          <mxGeometry x="0.0667" y="1" relative="1" as="geometry">
            <mxPoint as="offset" />
          </mxGeometry>
        </mxCell>
        <mxCell id="2ow2e5n1_LkANaT4E1-G-22" value="&lt;font style=&quot;font-size: 14px;&quot;&gt;self_attention_layer_-&amp;gt;forward&lt;/font&gt;" style="edgeLabel;html=1;align=center;verticalAlign=middle;resizable=0;points=[];" vertex="1" connectable="0" parent="2ow2e5n1_LkANaT4E1-G-12">
          <mxGeometry x="0.0333" y="-5" relative="1" as="geometry">
            <mxPoint as="offset" />
          </mxGeometry>
        </mxCell>
        <mxCell id="2ow2e5n1_LkANaT4E1-G-6" value="&lt;b style=&quot;&quot;&gt;&lt;font style=&quot;font-size: 13px;&quot;&gt;ParallelGptContextDecoder.cc&lt;/font&gt;&lt;/b&gt;" style="rounded=0;whiteSpace=wrap;html=1;" vertex="1" parent="1">
          <mxGeometry y="560" width="280" height="80" as="geometry" />
        </mxCell>
        <mxCell id="2ow2e5n1_LkANaT4E1-G-23" value="" style="edgeStyle=orthogonalEdgeStyle;rounded=0;orthogonalLoop=1;jettySize=auto;html=1;" edge="1" parent="1" source="2ow2e5n1_LkANaT4E1-G-7" target="2ow2e5n1_LkANaT4E1-G-20">
          <mxGeometry relative="1" as="geometry" />
        </mxCell>
        <mxCell id="2ow2e5n1_LkANaT4E1-G-24" value="&lt;font style=&quot;font-size: 14px;&quot;&gt;GptContextAttentionLayer&amp;lt;T&amp;gt;::forward&lt;/font&gt;" style="edgeLabel;html=1;align=center;verticalAlign=middle;resizable=0;points=[];" vertex="1" connectable="0" parent="2ow2e5n1_LkANaT4E1-G-23">
          <mxGeometry x="-0.0333" y="1" relative="1" as="geometry">
            <mxPoint as="offset" />
          </mxGeometry>
        </mxCell>
        <mxCell id="2ow2e5n1_LkANaT4E1-G-7" value="&lt;b style=&quot;&quot;&gt;&lt;font style=&quot;font-size: 13px;&quot;&gt;TensorParallelGptContextAttentionLayer.cc&lt;/font&gt;&lt;/b&gt;" style="rounded=0;whiteSpace=wrap;html=1;" vertex="1" parent="1">
          <mxGeometry y="700" width="280" height="80" as="geometry" />
        </mxCell>
        <mxCell id="2ow2e5n1_LkANaT4E1-G-26" value="" style="edgeStyle=orthogonalEdgeStyle;rounded=0;orthogonalLoop=1;jettySize=auto;html=1;" edge="1" parent="1" source="2ow2e5n1_LkANaT4E1-G-9" target="2ow2e5n1_LkANaT4E1-G-25">
          <mxGeometry relative="1" as="geometry" />
        </mxCell>
        <mxCell id="2ow2e5n1_LkANaT4E1-G-27" value="&lt;font style=&quot;font-size: 14px;&quot;&gt;self.ft_op_forward&lt;/font&gt;" style="edgeLabel;html=1;align=center;verticalAlign=middle;resizable=0;points=[];" vertex="1" connectable="0" parent="2ow2e5n1_LkANaT4E1-G-26">
          <mxGeometry x="-0.1" y="1" relative="1" as="geometry">
            <mxPoint as="offset" />
          </mxGeometry>
        </mxCell>
        <mxCell id="2ow2e5n1_LkANaT4E1-G-9" value="&lt;font style=&quot;font-size: 13px;&quot;&gt;&lt;b style=&quot;&quot;&gt;gpt_decoder.py&lt;/b&gt;&lt;/font&gt;&lt;div style=&quot;font-size: 13px;&quot;&gt;&lt;font style=&quot;font-size: 13px;&quot;&gt;&lt;b style=&quot;&quot;&gt;GptDecoder&lt;/b&gt;&lt;/font&gt;&lt;/div&gt;" style="rounded=0;whiteSpace=wrap;html=1;" vertex="1" parent="1">
          <mxGeometry x="520" y="280" width="280" height="80" as="geometry" />
        </mxCell>
        <mxCell id="2ow2e5n1_LkANaT4E1-G-20" value="&lt;b style=&quot;&quot;&gt;&lt;font style=&quot;font-size: 13px;&quot;&gt;GptContextAttentionLayer.cc&lt;/font&gt;&lt;/b&gt;" style="rounded=0;whiteSpace=wrap;html=1;" vertex="1" parent="1">
          <mxGeometry y="840" width="280" height="80" as="geometry" />
        </mxCell>
        <mxCell id="2ow2e5n1_LkANaT4E1-G-29" value="" style="edgeStyle=orthogonalEdgeStyle;rounded=0;orthogonalLoop=1;jettySize=auto;html=1;" edge="1" parent="1" source="2ow2e5n1_LkANaT4E1-G-25" target="2ow2e5n1_LkANaT4E1-G-28">
          <mxGeometry relative="1" as="geometry" />
        </mxCell>
        <mxCell id="2ow2e5n1_LkANaT4E1-G-31" value="&lt;font style=&quot;font-size: 14px;&quot;&gt;gpt_decoder.forward&lt;/font&gt;" style="edgeLabel;html=1;align=center;verticalAlign=middle;resizable=0;points=[];" vertex="1" connectable="0" parent="2ow2e5n1_LkANaT4E1-G-29">
          <mxGeometry y="-1" relative="1" as="geometry">
            <mxPoint as="offset" />
          </mxGeometry>
        </mxCell>
        <mxCell id="2ow2e5n1_LkANaT4E1-G-25" value="&lt;b style=&quot;&quot;&gt;&lt;font style=&quot;font-size: 13px;&quot;&gt;ParallelGptDecoderOp.cc&lt;/font&gt;&lt;/b&gt;" style="rounded=0;whiteSpace=wrap;html=1;" vertex="1" parent="1">
          <mxGeometry x="520" y="420" width="280" height="80" as="geometry" />
        </mxCell>
        <mxCell id="2ow2e5n1_LkANaT4E1-G-34" value="" style="edgeStyle=orthogonalEdgeStyle;rounded=0;orthogonalLoop=1;jettySize=auto;html=1;" edge="1" parent="1" source="2ow2e5n1_LkANaT4E1-G-28" target="2ow2e5n1_LkANaT4E1-G-32">
          <mxGeometry relative="1" as="geometry" />
        </mxCell>
        <mxCell id="2ow2e5n1_LkANaT4E1-G-37" value="&lt;font style=&quot;font-size: 14px;&quot;&gt;self_attention_layer_-&amp;gt;forward&lt;/font&gt;" style="edgeLabel;html=1;align=center;verticalAlign=middle;resizable=0;points=[];" vertex="1" connectable="0" parent="2ow2e5n1_LkANaT4E1-G-34">
          <mxGeometry x="-0.0667" y="-1" relative="1" as="geometry">
            <mxPoint as="offset" />
          </mxGeometry>
        </mxCell>
        <mxCell id="2ow2e5n1_LkANaT4E1-G-28" value="&lt;b style=&quot;&quot;&gt;&lt;font style=&quot;font-size: 13px;&quot;&gt;ParallelGptDecoder.cc&lt;/font&gt;&lt;/b&gt;" style="rounded=0;whiteSpace=wrap;html=1;" vertex="1" parent="1">
          <mxGeometry x="520" y="560" width="280" height="80" as="geometry" />
        </mxCell>
        <mxCell id="2ow2e5n1_LkANaT4E1-G-35" value="" style="edgeStyle=orthogonalEdgeStyle;rounded=0;orthogonalLoop=1;jettySize=auto;html=1;" edge="1" parent="1" source="2ow2e5n1_LkANaT4E1-G-32" target="2ow2e5n1_LkANaT4E1-G-33">
          <mxGeometry relative="1" as="geometry" />
        </mxCell>
        <mxCell id="2ow2e5n1_LkANaT4E1-G-38" value="&lt;font style=&quot;font-size: 14px;&quot;&gt;DecoderSelfAttentionLayer&amp;lt;T&amp;gt;::forward&lt;/font&gt;" style="edgeLabel;html=1;align=center;verticalAlign=middle;resizable=0;points=[];" vertex="1" connectable="0" parent="2ow2e5n1_LkANaT4E1-G-35">
          <mxGeometry x="-0.0667" y="-1" relative="1" as="geometry">
            <mxPoint as="offset" />
          </mxGeometry>
        </mxCell>
        <mxCell id="2ow2e5n1_LkANaT4E1-G-32" value="&lt;b style=&quot;&quot;&gt;&lt;font style=&quot;font-size: 13px;&quot;&gt;TensorParallelDecoderSelfAttentionLayer.cc&lt;/font&gt;&lt;/b&gt;" style="rounded=0;whiteSpace=wrap;html=1;" vertex="1" parent="1">
          <mxGeometry x="520" y="700" width="280" height="80" as="geometry" />
        </mxCell>
        <mxCell id="2ow2e5n1_LkANaT4E1-G-33" value="&lt;b style=&quot;&quot;&gt;&lt;font style=&quot;font-size: 13px;&quot;&gt;DecoderSelfAttentionLayer.cc&lt;/font&gt;&lt;/b&gt;" style="rounded=0;whiteSpace=wrap;html=1;" vertex="1" parent="1">
          <mxGeometry x="520" y="840" width="280" height="80" as="geometry" />
        </mxCell>
      </root>
    </mxGraphModel>
  </diagram>
</mxfile>
